<?xml version="1.0" encoding="UTF-8"?>
<svg xmlns="http://www.w3.org/2000/svg" xmlns:xlink="http://www.w3.org/1999/xlink" width="26px" height="30px" viewBox="0 0 26 29" version="1.1">
<g id="surface1">
<path style=" stroke:none;fill-rule:nonzero;fill:rgb(0%,0%,0%);fill-opacity:1;" d="M 23.214844 1.8125 L 2.785156 1.8125 C 1.246094 1.8125 0 3.03125 0 4.53125 L 0 24.46875 C 0 25.96875 1.246094 27.1875 2.785156 27.1875 L 10.75 27.1875 L 10.75 18.5625 L 7.09375 18.5625 L 7.09375 14.5 L 10.75 14.5 L 10.75 11.40625 C 10.75 7.886719 12.898438 5.941406 16.1875 5.941406 C 17.761719 5.941406 19.410156 6.214844 19.410156 6.214844 L 19.410156 9.667969 L 17.59375 9.667969 C 15.804688 9.667969 15.25 10.753906 15.25 11.863281 L 15.25 14.5 L 19.242188 14.5 L 18.601562 18.5625 L 15.25 18.5625 L 15.25 27.1875 L 23.214844 27.1875 C 24.753906 27.1875 26 25.96875 26 24.46875 L 26 4.53125 C 26 3.03125 24.753906 1.8125 23.214844 1.8125 Z M 23.214844 1.8125 "/>
</g>
</svg>
