<?xml version="1.0" encoding="utf-8"?>
<!-- Generator: Adobe Illustrator 18.0.0, SVG Export Plug-In . SVG Version: 6.00 Build 0)  -->
<!DOCTYPE svg PUBLIC "-//W3C//DTD SVG 1.1//EN" "http://www.w3.org/Graphics/SVG/1.1/DTD/svg11.dtd">
<svg version="1.1" id="Layer_1" xmlns="http://www.w3.org/2000/svg" xmlns:xlink="http://www.w3.org/1999/xlink" x="0px" y="0px"
	 viewBox="0 0 512 512" enable-background="new 0 0 512 512" xml:space="preserve">
<g>
	<g>
		<g>
			<g>
				<path d="M35.8,478.7c49.9,0,99.7,0,149.6,0c6.8,0,13.5,0,20.3,0c9.7,0,9.7-15,0-15c-49.9,0-99.7,0-149.6,0c-6.8,0-13.5,0-20.3,0
					C26.1,463.7,26.1,478.7,35.8,478.7L35.8,478.7z"/>
			</g>
		</g>
		<g>
			<g>
				<path d="M142.1,463.7c-14.3,0-28.5,0-42.8,0c2.5,2.5,5,5,7.5,7.5c0-48.9,0-97.9,0-146.8c0-2.8,0-5.6,0-8.5c-2.5,2.5-5,5-7.5,7.5
					c14.3,0,28.5,0,42.8,0c-2.5-2.5-5-5-7.5-7.5c0,48.9,0,97.9,0,146.8c0,2.8,0,5.6,0,8.5c0,9.7,15,9.7,15,0c0-48.9,0-97.9,0-146.8
					c0-2.8,0-5.6,0-8.5c0-4.1-3.4-7.5-7.5-7.5c-14.3,0-28.5,0-42.8,0c-4.1,0-7.5,3.4-7.5,7.5c0,48.9,0,97.9,0,146.8
					c0,2.8,0,5.6,0,8.5c0,4.1,3.4,7.5,7.5,7.5c14.3,0,28.5,0,42.8,0C151.7,478.7,151.7,463.7,142.1,463.7z"/>
			</g>
		</g>
		<g>
			<g>
				<path d="M184.3,308.4c-22.7,0-45.4,0-68.1,0c-14.7,0-29.4,0-44.1,0c-7.2,0-18.2,1.7-24.2-3.1c-6.4-5.1-5.8-12.4-5.8-19.6
					c0-9.8,0-19.6,0-29.4c0-31,0-61.9,0-92.9c0-27.6,0-55.3,0-82.9c0-5.6,0-11.2,0-16.9c0-6.7,4-12.4,10.4-14.6
					c2.8-1,5.9-0.7,8.9-0.7c28.1,0,56.2,0,84.2,0c11.6,0,23.2,0,34.9,0c3.4,0,6.4,0,9.7,1.1c5.8,2,9.1,8.5,9.1,14.3
					c0,50,0,100,0,150c0,20.8,0,41.6,0,62.4C199.3,288.3,202.1,307.8,184.3,308.4c-9.7,0.3-9.7,15.3,0,15c17.5-0.5,30-14.3,30-31.6
					c0-7,0-14,0-20.9c0-28.8,0-57.7,0-86.5c0-30.2,0-60.4,0-90.5c0-8.6,0-17.3,0-25.9c0-1.5,0-3,0-4.5c0-10.4-5.4-19.4-13.7-25.3
					c-8.4-6-19.5-4.8-29.3-4.8c-14.3,0-28.7,0-43,0c-23.7,0-47.3,0-71,0c-17.2,0-30.1,14.3-30.1,31.1c0,6.5,0,13.1,0,19.6
					c0,28.5,0,56.9,0,85.4c0,30.5,0,60.9,0,91.4c0,9,0,18.1,0,27.1c0,10.6,1.7,20.5,10.2,28c9,8,19.9,7.5,31,7.5c14,0,28,0,41.9,0
					c24.6,0,49.1,0,73.7,0c0.1,0,0.2,0,0.4,0C194,323.4,194,308.4,184.3,308.4z"/>
			</g>
		</g>
		<g>
			<g>
				<path d="M139.8,112.2c-0.3,10.6-8.5,18.8-19.1,19.1c-10.6,0.3-18.8-8.9-19.1-19.1c-0.3-10.6,8.9-18.8,19.1-19.1
					C131.3,92.8,139.5,102,139.8,112.2c0.2,9.7,15.2,9.7,15,0c-0.5-18.9-15.2-33.6-34.1-34.1c-18.9-0.5-33.6,15.9-34.1,34.1
					c-0.5,18.9,15.9,33.6,34.1,34.1c18.9,0.5,33.6-15.9,34.1-34.1C155,102.5,140,102.5,139.8,112.2z"/>
			</g>
		</g>
		<g>
			<g>
				<path d="M153.1,231.2c-0.3,17.9-14.5,32.1-32.4,32.4c-17.9,0.3-32.1-14.9-32.4-32.4c-0.3-17.9,14.9-32.1,32.4-32.4
					C138.6,198.5,152.8,213.8,153.1,231.2c0.2,9.7,15.2,9.7,15,0c-0.4-24.8-18.8-44.2-43.2-47.2c-23.8-2.9-46.3,15.3-50.7,38.3
					c-4.6,24.1,10.5,47.5,33.7,54.5c23.8,7.1,48-6.9,57.1-29c2.1-5.2,2.9-11,3-16.6C168.2,221.5,153.2,221.6,153.1,231.2z"/>
			</g>
		</g>
		<g>
			<g>
				<path d="M120.7,238.7c9.7,0,9.7-15,0-15S111,238.7,120.7,238.7L120.7,238.7z"/>
			</g>
		</g>
	</g>
	<g>
		<g>
			<g>
				<path d="M306.4,478.7c49.9,0,99.7,0,149.6,0c6.8,0,13.5,0,20.3,0c9.7,0,9.7-15,0-15c-49.9,0-99.7,0-149.6,0
					c-6.8,0-13.5,0-20.3,0C296.7,463.7,296.7,478.7,306.4,478.7L306.4,478.7z"/>
			</g>
		</g>
		<g>
			<g>
				<path d="M412.7,463.7c-14.3,0-28.5,0-42.8,0c2.5,2.5,5,5,7.5,7.5c0-48.5,0-97.1,0-145.6c0-2.2,0-4.5,0-6.7c-2.5,2.5-5,5-7.5,7.5
					c14.3,0,28.5,0,42.8,0c-2.5-2.5-5-5-7.5-7.5c0,48.5,0,97.1,0,145.6c0,2.2,0,4.5,0,6.7c0,9.7,15,9.7,15,0c0-48.5,0-97.1,0-145.6
					c0-2.2,0-4.5,0-6.7c0-4.1-3.4-7.5-7.5-7.5c-14.3,0-28.5,0-42.8,0c-4.1,0-7.5,3.4-7.5,7.5c0,48.5,0,97.1,0,145.6
					c0,2.2,0,4.5,0,6.7c0,4.1,3.4,7.5,7.5,7.5c14.3,0,28.5,0,42.8,0C422.4,478.7,422.4,463.7,412.7,463.7z"/>
			</g>
		</g>
		<g>
			<g>
				<path d="M454.9,311.4c-22.7,0-45.4,0-68.1,0c-14.7,0-29.4,0-44.1,0c-7.2,0-18.2,1.7-24.2-3.1c-6.4-5.1-5.8-12.4-5.8-19.6
					c0-9.8,0-19.6,0-29.4c0-31,0-61.9,0-92.9c0-27.6,0-55.3,0-82.9c0-5.6,0-11.2,0-16.9c0-6.7,4-12.4,10.4-14.6
					c2.8-1,5.9-0.7,8.9-0.7c28.1,0,56.2,0,84.2,0c11.6,0,23.2,0,34.9,0c3.4,0,6.4,0,9.7,1.1c5.8,2,9.1,8.5,9.1,14.3
					c0,50,0,100,0,150c0,20.8,0,41.6,0,62.4C469.9,291.3,472.7,310.8,454.9,311.4c-9.7,0.3-9.7,15.3,0,15c17.5-0.5,30-14.3,30-31.6
					c0-7,0-14,0-20.9c0-28.8,0-57.7,0-86.5c0-30.2,0-60.4,0-90.5c0-8.6,0-17.3,0-25.9c0-1.5,0-3,0-4.5c0-10.4-5.4-19.4-13.7-25.3
					c-8.4-6-19.5-4.8-29.3-4.8c-14.3,0-28.7,0-43,0c-23.7,0-47.3,0-71,0c-17.2,0-30.1,14.3-30.1,31.1c0,6.5,0,13.1,0,19.6
					c0,28.5,0,56.9,0,85.4c0,30.5,0,60.9,0,91.4c0,9,0,18.1,0,27.1c0,10.6,1.7,20.5,10.2,28c9,8,19.9,7.5,31,7.5c14,0,28,0,41.9,0
					c24.6,0,49.1,0,73.7,0c0.1,0,0.2,0,0.4,0C464.6,326.4,464.6,311.4,454.9,311.4z"/>
			</g>
		</g>
		<g>
			<g>
				<path d="M410.4,115.2c-0.3,10.6-8.5,18.8-19.1,19.1c-10.6,0.3-18.8-8.9-19.1-19.1c-0.3-10.6,8.9-18.8,19.1-19.1
					C401.9,95.9,410.1,105,410.4,115.2c0.2,9.7,15.2,9.7,15,0c-0.5-18.9-15.2-33.6-34.1-34.1c-18.9-0.5-33.6,15.9-34.1,34.1
					c-0.5,18.9,15.9,33.6,34.1,34.1c18.9,0.5,33.6-15.9,34.1-34.1C425.6,105.5,410.6,105.5,410.4,115.2z"/>
			</g>
		</g>
		<g>
			<g>
				<path d="M423.7,234.2c-0.3,17.9-14.5,32.1-32.4,32.4c-17.9,0.3-32.1-14.9-32.4-32.4c-0.3-17.9,14.9-32.1,32.4-32.4
					C409.2,201.5,423.4,216.8,423.7,234.2c0.2,9.7,15.2,9.7,15,0c-0.4-24.8-18.8-44.2-43.2-47.2c-23.8-2.9-46.3,15.3-50.7,38.3
					c-4.6,24.1,10.5,47.5,33.7,54.5c23.8,7.1,48-6.9,57.1-29c2.1-5.2,2.9-11,3-16.6C438.8,224.5,423.8,224.6,423.7,234.2z"/>
			</g>
		</g>
		<g>
			<g>
				<path d="M391.3,241.7c9.7,0,9.7-15,0-15C381.6,226.7,381.6,241.7,391.3,241.7L391.3,241.7z"/>
			</g>
		</g>
	</g>
</g>
</svg>
