<?xml version="1.0" encoding="UTF-8"?>
<svg xmlns="http://www.w3.org/2000/svg" xmlns:xlink="http://www.w3.org/1999/xlink" width="26px" height="30px" viewBox="0 0 26 29" version="1.1">
<g id="surface1">
<path style=" stroke:none;fill-rule:nonzero;fill:rgb(0%,0%,0%);fill-opacity:1;" d="M 13 11.480469 C 11.289062 11.480469 9.90625 12.832031 9.90625 14.5 C 9.90625 16.167969 11.292969 17.519531 13 17.519531 C 14.710938 17.519531 16.097656 16.167969 16.097656 14.5 C 16.09375 12.832031 14.710938 11.480469 13 11.480469 Z M 20.238281 9.15625 C 19.917969 8.367188 19.28125 7.746094 18.472656 7.433594 C 17.253906 6.964844 14.351562 7.070312 13 7.070312 C 11.648438 7.070312 8.75 6.960938 7.527344 7.433594 C 6.71875 7.746094 6.082031 8.367188 5.761719 9.15625 C 5.28125 10.347656 5.386719 13.179688 5.386719 14.5 C 5.386719 15.816406 5.28125 18.648438 5.765625 19.84375 C 6.082031 20.628906 6.722656 21.253906 7.527344 21.566406 C 8.746094 22.035156 11.648438 21.929688 13.003906 21.929688 C 14.355469 21.929688 17.253906 22.039062 18.476562 21.566406 C 19.28125 21.253906 19.921875 20.628906 20.238281 19.84375 C 20.722656 18.652344 20.613281 15.820312 20.613281 14.5 C 20.613281 13.179688 20.722656 10.351562 20.238281 9.15625 Z M 13 19.144531 C 10.371094 19.144531 8.242188 17.066406 8.242188 14.5 C 8.242188 11.933594 10.371094 9.855469 13 9.855469 C 15.628906 9.855469 17.757812 11.933594 17.757812 14.5 C 17.761719 15.730469 17.257812 16.914062 16.367188 17.785156 C 15.472656 18.65625 14.261719 19.144531 13 19.144531 Z M 17.957031 10.746094 C 17.339844 10.746094 16.84375 10.261719 16.84375 9.660156 C 16.84375 9.0625 17.339844 8.578125 17.953125 8.578125 C 18.566406 8.578125 19.066406 9.0625 19.066406 9.660156 C 19.066406 9.949219 18.949219 10.222656 18.742188 10.429688 C 18.535156 10.632812 18.253906 10.746094 17.957031 10.746094 Z M 23.214844 1.8125 L 2.785156 1.8125 C 1.246094 1.8125 0 3.03125 0 4.53125 L 0 24.46875 C 0 25.96875 1.246094 27.1875 2.785156 27.1875 L 23.214844 27.1875 C 24.753906 27.1875 26 25.96875 26 24.46875 L 26 4.53125 C 26 3.03125 24.753906 1.8125 23.214844 1.8125 Z M 22.222656 18.238281 C 22.144531 19.691406 21.804688 20.976562 20.71875 22.03125 C 19.632812 23.089844 18.316406 23.429688 16.832031 23.496094 C 15.300781 23.582031 10.703125 23.582031 9.171875 23.496094 C 7.683594 23.425781 6.371094 23.09375 5.28125 22.03125 C 4.195312 20.972656 3.855469 19.6875 3.78125 18.238281 C 3.695312 16.742188 3.695312 12.257812 3.78125 10.761719 C 3.859375 9.308594 4.191406 8.023438 5.28125 6.96875 C 6.371094 5.910156 7.691406 5.574219 9.171875 5.507812 C 10.703125 5.421875 15.300781 5.421875 16.832031 5.507812 C 18.320312 5.578125 19.636719 5.910156 20.71875 6.972656 C 21.804688 8.03125 22.148438 9.316406 22.222656 10.769531 C 22.308594 12.257812 22.308594 16.742188 22.222656 18.238281 Z M 22.222656 18.238281 "/>
</g>
</svg>
