<?xml version="1.0" encoding="UTF-8" standalone="no"?>
<svg
   width="64pt"
   height="64pt"
   viewBox="0 0 22.577778 22.577778"
   version="1.1"
   id="svg831"
   inkscape:version="1.1.2 (1:1.1+202202050950+0a00cf5339)"
   sodipodi:docname="21 - Biceps.svg"
   inkscape:export-filename="/media/taufikramadhan/Data/Tr Design Studio/Project Design/TR Creative Design/Icon Design/Project Hiring/Icon Icons/018 - Gym And Fitness/5 - Send/2 - Solid/SVG/21 - Biceps.png"
   inkscape:export-xdpi="576"
   inkscape:export-ydpi="576"
   xmlns:inkscape="http://www.inkscape.org/namespaces/inkscape"
   xmlns:sodipodi="http://sodipodi.sourceforge.net/DTD/sodipodi-0.dtd"
   xmlns="http://www.w3.org/2000/svg"
   xmlns:svg="http://www.w3.org/2000/svg"
   xmlns:rdf="http://www.w3.org/1999/02/22-rdf-syntax-ns#"
   xmlns:cc="http://creativecommons.org/ns#"
   xmlns:dc="http://purl.org/dc/elements/1.1/">
  <defs
     id="defs825">
    <pattern
       id="EMFhbasepattern"
       patternUnits="userSpaceOnUse"
       width="6"
       height="6"
       x="0"
       y="0" />
    <pattern
       id="EMFhbasepattern-9"
       patternUnits="userSpaceOnUse"
       width="6"
       height="6"
       x="0"
       y="0" />
    <pattern
       id="EMFhbasepattern-0"
       patternUnits="userSpaceOnUse"
       width="6"
       height="6"
       x="0"
       y="0" />
    <pattern
       id="EMFhbasepattern-7"
       patternUnits="userSpaceOnUse"
       width="6"
       height="6"
       x="0"
       y="0" />
    <pattern
       id="EMFhbasepattern-2"
       patternUnits="userSpaceOnUse"
       width="6"
       height="6"
       x="0"
       y="0" />
    <pattern
       id="EMFhbasepattern-98"
       patternUnits="userSpaceOnUse"
       width="6"
       height="6"
       x="0"
       y="0" />
    <pattern
       id="EMFhbasepattern-6"
       patternUnits="userSpaceOnUse"
       width="6"
       height="6"
       x="0"
       y="0" />
    <pattern
       id="EMFhbasepattern-01"
       patternUnits="userSpaceOnUse"
       width="6"
       height="6"
       x="0"
       y="0" />
    <pattern
       id="EMFhbasepattern-07"
       patternUnits="userSpaceOnUse"
       width="6"
       height="6"
       x="0"
       y="0" />
    <pattern
       id="EMFhbasepattern-8"
       patternUnits="userSpaceOnUse"
       width="6"
       height="6"
       x="0"
       y="0" />
    <pattern
       id="EMFhbasepattern-4"
       patternUnits="userSpaceOnUse"
       width="6"
       height="6"
       x="0"
       y="0" />
    <pattern
       id="EMFhbasepattern-40"
       patternUnits="userSpaceOnUse"
       width="6"
       height="6"
       x="0"
       y="0" />
    <pattern
       id="EMFhbasepattern-08"
       patternUnits="userSpaceOnUse"
       width="6"
       height="6"
       x="0"
       y="0" />
    <pattern
       id="EMFhbasepattern-04"
       patternUnits="userSpaceOnUse"
       width="6"
       height="6"
       x="0"
       y="0" />
    <pattern
       id="EMFhbasepattern-014"
       patternUnits="userSpaceOnUse"
       width="6"
       height="6"
       x="0"
       y="0" />
    <pattern
       id="EMFhbasepattern-27"
       patternUnits="userSpaceOnUse"
       width="6"
       height="6"
       x="0"
       y="0" />
    <pattern
       id="EMFhbasepattern-09"
       patternUnits="userSpaceOnUse"
       width="6"
       height="6"
       x="0"
       y="0" />
    <pattern
       id="EMFhbasepattern-5"
       patternUnits="userSpaceOnUse"
       width="6"
       height="6"
       x="0"
       y="0" />
    <pattern
       id="EMFhbasepattern-018"
       patternUnits="userSpaceOnUse"
       width="6"
       height="6"
       x="0"
       y="0" />
  </defs>
  <sodipodi:namedview
     inkscape:lockguides="true"
     id="base"
     pagecolor="#ffffff"
     bordercolor="#666666"
     borderopacity="1.0"
     inkscape:pageopacity="0.0"
     inkscape:pageshadow="2"
     inkscape:zoom="5.5546875"
     inkscape:cx="42.576653"
     inkscape:cy="42.666667"
     inkscape:document-units="pt"
     inkscape:current-layer="layer1"
     showgrid="false"
     units="pt"
     inkscape:window-width="1366"
     inkscape:window-height="705"
     inkscape:window-x="0"
     inkscape:window-y="31"
     inkscape:window-maximized="1"
     inkscape:pagecheckerboard="true"
     inkscape:showpageshadow="false"
     inkscape:object-paths="true"
     inkscape:snap-intersection-paths="true"
     inkscape:snap-smooth-nodes="true"
     inkscape:snap-midpoints="true"
     showguides="false"
     inkscape:snap-bbox="true"
     inkscape:bbox-nodes="true"
     inkscape:snap-nodes="false"
     inkscape:snap-global="true"
     inkscape:document-rotation="0">
    <inkscape:grid
       type="xygrid"
       id="grid1378" />
    <sodipodi:guide
       position="0.97013831,21.607643"
       orientation="78.000048,0"
       id="guide1380"
       inkscape:locked="true" />
    <sodipodi:guide
       position="0.97013831,0.97013129"
       orientation="0,78.000005"
       id="guide1382"
       inkscape:locked="true" />
    <sodipodi:guide
       position="21.607639,0.97013129"
       orientation="-78.000048,0"
       id="guide1384"
       inkscape:locked="true" />
    <sodipodi:guide
       position="21.607639,21.607643"
       orientation="0,-78.000005"
       id="guide1386"
       inkscape:locked="true" />
  </sodipodi:namedview>
  <metadata
     id="metadata828">
    <rdf:RDF>
      <cc:Work
         rdf:about="">
        <dc:format>image/svg+xml</dc:format>
        <dc:type
           rdf:resource="http://purl.org/dc/dcmitype/StillImage" />
      </cc:Work>
    </rdf:RDF>
  </metadata>
  <g
     inkscape:label="Icon"
     inkscape:groupmode="layer"
     id="layer1"
     transform="translate(0,-274.42223)">
    <path
       id="path126860"
       style="color:#000000;display:inline;fill:#000000;stroke-width:1;stroke-linecap:round;stroke-linejoin:round;stroke-miterlimit:10;-inkscape-stroke:none"
       d="m 9.5230441,275.93153 -1.0545656,0.015 c -1.6562684,0 -2.6481828,0.7664 -3.1721493,1.52854 -0.4635315,0.67422 -0.5248577,1.2083 -0.5480884,1.35624 -0.1222311,0.047 -0.4402641,0.14803 -0.8744702,0.55264 -0.1027604,0.0957 -0.2042903,0.20937 -0.3029763,0.33353 -0.2883727,0.69261 -0.2636586,1.57587 -0.1053268,2.94979 0.061886,0.53703 0.1449866,1.03199 0.1449866,1.91929 7.256e-4,0.18486 -0.14932,0.33491 -0.3341843,0.33418 -0.1838476,-6.6e-4 -0.3323037,-0.15033 -0.3315835,-0.33418 0,-0.84667 -0.075554,-1.28586 -0.1397852,-1.84322 -0.035326,-0.30653 -0.066023,-0.59402 -0.087772,-0.86602 -0.3461297,0.49515 -1.6828964,2.58906 -1.74699013,5.5485 -0.001296,3.25194 1.08820033,5.03797 2.45111763,6.16161 1.9032834,1.61116 4.3826167,1.87115 6.2844837,1.89198 0.019434,0.004 0.039641,0.007 0.059164,0.0113 -2.9709464,-0.6553 -4.355449,-3.12729 -4.3554474,-3.12729 -0.089055,-0.16002 -0.032113,-0.36193 0.127432,-0.45186 0.160771,-0.0912 0.365113,-0.0341 0.4551149,0.12743 0,0 1.6201894,2.94654 5.2461722,2.94654 0,0 0.869111,-9.9e-4 1.906931,-0.12808 0.835742,-0.10231 1.774289,-0.30603 2.414709,-0.60919 -0.786328,-0.61476 -1.141689,-1.17746 -1.141688,-1.17746 -0.09775,-0.15583 -0.05058,-0.3614 0.105332,-0.45901 0.15542,-0.0963 0.359516,-0.0493 0.457065,0.1053 0,0 0.328223,0.53241 1.162494,1.13778 0.832613,0.60416 2.153776,1.25666 4.116187,1.43036 h 1.167688 c 0.111484,-0.19752 0.180746,-0.42173 0.180746,-0.66121 v -8.30585 c -2e-6,-0.7534 -0.617136,-1.37119 -1.370545,-1.37119 H 19.54597 c -6.65e-4,0 -0.0013,0 -0.002,0 -3.473564,0.006 -5.235586,1.92516 -5.678531,2.44787 0.761874,1.284 0.580004,2.88842 0.09558,3.91203 -0.0793,0.1652 -0.277201,0.23523 -0.442763,0.15669 -0.165068,-0.079 -0.23535,-0.27655 -0.157339,-0.44211 0.422451,-0.89264 0.555753,-2.46404 -0.225606,-3.51868 -1.124604,-1.4191 -2.915986,-1.2002 -2.915986,-1.2002 -2.2852773,0.001 -3.1955557,1.57144 -3.1955557,1.57144 -0.094952,0.15748 -0.2996154,0.20813 -0.4570651,0.11311 -0.1574855,-0.095 -0.2081417,-0.29963 -0.1131286,-0.45708 0,0 0.3965933,-0.64016 1.237912,-1.17484 -0.076697,-0.32303 -0.2743688,-1.06227 -0.2743688,-2.46022 0,-0.90233 0.2795627,-1.64873 0.5272826,-2.13579 -0.2884764,-0.17441 -0.5394186,-0.38989 -0.7483385,-0.5988 -0.4640612,-0.46407 -0.7424873,-0.92908 -0.7424873,-0.92908 -0.095032,-0.15744 -0.044327,-0.36208 0.1131286,-0.45707 0.1580669,-0.0947 0.362912,-0.0427 0.4570651,0.11575 0,0 0.2397696,0.39973 0.6410615,0.80101 0.2109851,0.21098 0.4608714,0.41198 0.7307844,0.55523 0.2040178,0.093 0.4101551,0.18181 0.6443124,0.20546 0.021215,0.002 0.043311,0.002 0.065016,0.004 v -0.32897 c 0,-1.21487 -0.5747468,-2.17675 -0.5747448,-2.17675 -0.095016,-0.15745 -0.044357,-0.36211 0.1131286,-0.45706 0.1572792,-0.0951 0.361893,-0.0448 0.4570651,0.11247 0,0 0.6709692,1.09722 0.6709692,2.52134 v 0.33158 h 1.1202333 c 0.1096,0 0.211637,-0.004 0.314679,-0.008 v -0.35238 c 0,-1.21056 -0.597501,-2.1722 -0.597501,-2.1722 -0.09807,-0.15613 -0.05056,-0.36224 0.105977,-0.45967 0.07468,-0.0464 0.164655,-0.0613 0.250314,-0.0416 0.08657,0.0191 0.161919,0.0721 0.209353,0.14694 0,0 0.697625,1.09808 0.697625,2.52654 v 0.28866 c 0.214063,-0.0344 0.413833,-0.0791 0.592299,-0.14174 0.422884,-0.14855 0.756991,-0.3932 0.943388,-0.73924 0.186396,-0.34602 0.209915,-0.76155 0.115724,-1.20216 -0.356037,-1.16013 -0.999609,-2.43236 -2.054517,-2.96539 -0.583099,-0.28497 -1.235023,-0.37255 -1.9459418,-0.4057 z m 3.7735509,5.64602 c -0.474002,0.30247 -1.054274,0.44291 -1.569495,0.51493 -0.330672,0.0462 -0.643844,0.062 -0.901777,0.065 0.188062,0.20848 0.459727,0.34004 0.759391,0.34004 h 0.693075 c 0.526215,0 0.964726,-0.40686 1.018806,-0.91999 z m 4.170802,5.09989 c 0.08832,-6.7e-4 0.17322,0.034 0.236009,0.0962 0,0 2.204233,2.2182 1.474572,5.50169 -0.04102,0.1779 -0.217656,0.28956 -0.39595,0.2503 -0.178642,-0.0399 -0.291618,-0.21639 -0.252914,-0.39529 0.654902,-2.94705 -1.295127,-4.88533 -1.295127,-4.88533 -0.1304,-0.13007 -0.1304,-0.3413 0,-0.47137 0.06216,-0.0616 0.14599,-0.096 0.23341,-0.0962 z m -14.5376642,1.38354 c 0.1848641,-6.7e-4 0.3349084,0.14933 0.3341842,0.33419 0,0 -0.00117,0.31338 0.078669,0.71258 0.079839,0.39919 0.2485483,0.86035 0.5162301,1.12803 0.1308348,0.13015 0.1308348,0.34188 0,0.47202 -0.1301411,0.13083 -0.341878,0.13083 -0.4720189,0 -0.4246008,-0.4246 -0.6017942,-1.00386 -0.6950252,-1.47002 -0.093231,-0.46616 -0.093624,-0.84261 -0.093624,-0.84261 -7.19e-4,-0.18386 0.1477356,-0.33347 0.3315848,-0.33419 z m 13.1541152,0 c 0.183847,6.6e-4 0.332303,0.15033 0.331584,0.33419 -10e-7,0 0.02132,1.15613 -0.788649,1.9661 -0.130141,0.13082 -0.341878,0.13082 -0.472019,0 -0.130836,-0.13015 -0.130836,-0.34189 0,-0.47203 0.574581,-0.57457 0.5975,-1.49407 0.5975,-1.49407 -7.32e-4,-0.18386 0.147737,-0.33347 0.331584,-0.33419 z m -9.0119215,2.07858 c 0.1024064,-0.001 0.1883072,0.0368 0.2496629,0.0988 l 0.1761944,0.16708 c 0.1215267,0.0961 0.3165187,0.2284 0.5948998,0.35629 0.5567633,0.25581 1.4479683,0.49975 2.7768504,0.41545 0.184036,-0.0113 0.342554,0.128 0.353689,0.31208 0.01199,0.18314 -0.126373,0.34112 -0.309478,0.35369 -1.4295481,0.0908 -2.4415951,-0.17468 -3.0986811,-0.47657 -0.3285432,-0.15093 -0.5686291,-0.30974 -0.730134,-0.43755 -0.080753,-0.0639 -0.142464,-0.12015 -0.186597,-0.16449 -0.056445,-0.0841 -0.147651,-0.14889 -0.1475875,-0.27307 -0.010543,-0.18312 0.128686,-0.34009 0.3211811,-0.35174 z" />
  </g>
</svg>
