<?xml version="1.0" encoding="UTF-8"?>
<svg xmlns="http://www.w3.org/2000/svg" xmlns:xlink="http://www.w3.org/1999/xlink" width="26px" height="30px" viewBox="0 0 26 29" version="1.1">
<g id="surface1">
<path style=" stroke:none;fill-rule:nonzero;fill:rgb(0%,0%,0%);fill-opacity:1;" d="M 3.714844 1.8125 C 1.664062 1.8125 0 3.4375 0 5.4375 L 0 23.5625 C 0 25.5625 1.664062 27.1875 3.714844 27.1875 L 22.285156 27.1875 C 24.335938 27.1875 26 25.5625 26 23.5625 L 26 5.4375 C 26 3.4375 24.335938 1.8125 22.285156 1.8125 Z M 20.386719 11.289062 C 20.386719 16.199219 16.558594 21.859375 9.558594 21.859375 C 7.398438 21.859375 5.398438 21.246094 3.714844 20.191406 C 4.023438 20.226562 4.316406 20.238281 4.632812 20.238281 C 6.414062 20.238281 8.050781 19.648438 9.355469 18.652344 C 7.683594 18.617188 6.28125 17.546875 5.796875 16.074219 C 6.382812 16.160156 6.910156 16.160156 7.515625 16.007812 C 5.773438 15.660156 4.46875 14.164062 4.46875 12.359375 L 4.46875 12.3125 C 4.972656 12.589844 5.566406 12.761719 6.1875 12.785156 C 5.664062 12.445312 5.234375 11.984375 4.9375 11.445312 C 4.644531 10.910156 4.484375 10.304688 4.492188 9.691406 C 4.492188 9 4.675781 8.367188 5.007812 7.816406 C 6.882812 10.070312 9.699219 11.542969 12.855469 11.703125 C 12.316406 9.179688 14.246094 7.136719 16.570312 7.136719 C 17.667969 7.136719 18.652344 7.585938 19.347656 8.308594 C 20.207031 8.152344 21.03125 7.839844 21.761719 7.414062 C 21.480469 8.273438 20.882812 9 20.09375 9.460938 C 20.859375 9.378906 21.601562 9.171875 22.285156 8.882812 C 21.769531 9.625 21.121094 10.28125 20.375 10.808594 C 20.386719 10.964844 20.386719 11.128906 20.386719 11.289062 Z M 20.386719 11.289062 "/>
</g>
</svg>
